<?xml version="1.0" encoding="UTF-8" standalone="no"?>
<svg
   xmlns:dc="http://purl.org/dc/elements/1.1/"
   xmlns:cc="http://creativecommons.org/ns#"
   xmlns:rdf="http://www.w3.org/1999/02/22-rdf-syntax-ns#"
   xmlns:svg="http://www.w3.org/2000/svg"
   xmlns="http://www.w3.org/2000/svg"
   xmlns:sodipodi="http://sodipodi.sourceforge.net/DTD/sodipodi-0.dtd"
   xmlns:inkscape="http://www.inkscape.org/namespaces/inkscape"
   id="Layer_1"
   data-name="Layer 1"
   viewBox="0 0 4000 4000"
   version="1.1"
   sodipodi:docname="logo.svg"
   inkscape:version="1.0.2 (e86c870879, 2021-01-15)">
  <metadata
     id="metadata51">
    <rdf:RDF>
      <cc:Work
         rdf:about="">
        <dc:format>image/svg+xml</dc:format>
        <dc:type
           rdf:resource="http://purl.org/dc/dcmitype/StillImage" />
        <dc:title>Downhill Vector Logo Template</dc:title>
      </cc:Work>
    </rdf:RDF>
  </metadata>
  <sodipodi:namedview
     pagecolor="#ffffff"
     bordercolor="#666666"
     borderopacity="1"
     objecttolerance="10"
     gridtolerance="10"
     guidetolerance="10"
     inkscape:pageopacity="0"
     inkscape:pageshadow="2"
     inkscape:window-width="1920"
     inkscape:window-height="1010"
     id="namedview49"
     showgrid="false"
     inkscape:zoom="0.2085"
     inkscape:cx="2000"
     inkscape:cy="2000"
     inkscape:window-x="0"
     inkscape:window-y="0"
     inkscape:window-maximized="1"
     inkscape:current-layer="Layer_1" />
  <defs
     id="defs4">
    <rect
       x="839.32854"
       y="3472.4221"
       width="139.08873"
       height="95.923261"
       id="rect894" />
    <rect
       x="2834.5324"
       y="3175.06"
       width="302.15827"
       height="148.68106"
       id="rect888" />
    <rect
       x="3031.1751"
       y="3544.3645"
       width="201.43885"
       height="91.127098"
       id="rect882" />
    <style
       id="style2">.cls-1{fill:#231f20;}.cls-1,.cls-2{fill-rule:evenodd;}.cls-2{fill:#fff;}</style>
  </defs>
  <title
     id="title6">Downhill Vector Logo Template</title>
  <path
     class="cls-1"
     d="M2853.48,3097.41c81.32-51.38,134.69-85.15,207.12-130.24,58.73-10.46,142.73-56.77,163.71-109.44q9,144.7,9.05,144.71c-36.18-21.1-65.12-38.89-65.12-38.89-217.08,84.42-314.76,133.86-314.76,133.86m-808.14,9.5c-27-2.42-97.54,61.73-135.67,58.79-59.72-4.61-160.55-38.89-212.55-75.07q218.33,84.18,361.79-54.27c88.58,91.43,145,132.69,149.23,131.15C2108.65,3132.68,2045.34,3106.91,2045.34,3106.91Zm-690.56,118.94q62.46-23.8,162.8-9l-122.1-45.22-104,13.57ZM838,3130.68q-220,49.88-316.09,78.09l331-111.56,93,22.31Zm2378.83-382.39-193.75,80.5c-351.71,192.26-265.28,73.88-473,162.8l-4.63-1.63,46.24,88.91-157.2-127.95-128.61-45.26c-428.12,105.52-615,90.45-615,90.45-98.07-47.28-171.92-50.62-216.6-45.11l-81,105.26,6.53-84.93c-165.45,50.14-260.69,56.44-260.69,56.44l-185.42-36.18L714,3113.69H587.34L278.6,3264.2H3712.51c-72.62-73.69-148-168.58-235-267.2-23.54-26.67-70.46-19.45-93.54-47.26Z"
     id="path10" />
  <path
     class="cls-2"
     d="M1305.31,2507.31l118.81,20.05a319.89,319.89,0,0,1-29.38,75,38.41,38.41,0,0,0-2,4.23l-31,8.45q-3.27-3-6.7-5.82-24.88-51-49.79-101.9m651-706,37.4-31.18L1878.29,2092c2.43-13.4,4.94-25.89,7.11-36.71C1915.27,1972.35,1938.1,1887.45,1956.33,1801.28ZM1723.75,1257c4.76-1.49,9.51-3,14.24-4.62,14.54-5,29.2-10.77,42.31-18.85,1-.61,1.94-1.26,2.85-1.94l5.18,3.62a32.33,32.33,0,0,0,3.88,2.32,348.47,348.47,0,0,1,51.63,32.6,32.92,32.92,0,0,0,3.64,2.43q12,6.92,24.13,13.51a34.19,34.19,0,0,0,8.52,17.24c17.2,18.71,41.27,48.26,51.38,71.18a33,33,0,0,0,4.89,7.93,179.74,179.74,0,0,0,20.1,21.1,47.15,47.15,0,0,0-6.7,24c0,23.19,17.84,39.32,32,55.42l46.7,58.38c2,2.84,6.07,8.5,7.62,12-2,3.65-7.46,9.34-10.3,12.2l-31.47,26.68c-4.53-33.64-22.6-64.37-55.56-94.47-35.82-61.6-80.82-118.74-131.44-168.8C1782.29,1304.09,1753.7,1278.78,1723.75,1257Zm-261.36,552.27L1382,1682.73l43.17-34.94,89,134.06q2.29,13.15,4.85,26.29Q1490.69,1808.35,1462.39,1809.29Zm176.43,277.87q15.59-13.56,32.1-26-.32,37.05-1.56,74.14ZM2570,2155.35l30.44,39.09c.51.65,1,1.18,1.5,1.8q3.34,3.74,7,7.42a33.91,33.91,0,0,0,5.35,32.54,104.9,104.9,0,1,0,64.56-167.76l-16-20.62a129,129,0,1,1-92.89,108C2570,2155.66,2570,2155.51,2570,2155.35Zm-133.58-171.54,60.13,77.23a37,37,0,0,0-3.88,6.05,230.45,230.45,0,0,0-23.38,76c-16,126.26,73.48,241.56,199.73,257.51s241.56-73.48,257.51-199.73-73.48-241.56-199.73-257.51A229.67,229.67,0,0,0,2598,1964.29l-57.09-73.62c133.1-74.55,303.27-45.25,403.56,74.12,114.26,136,96.58,339.53-39.41,453.79s-339.53,96.59-453.79-39.41C2356.11,2265.88,2350.72,2102.57,2436.41,1983.81ZM1414.64,2016q-5.34-3.74-10.78-7.36a38.12,38.12,0,0,0-10-4.74,38.39,38.39,0,0,0-8.59-7.11q-18.91-11.46-38.76-21.31a38.09,38.09,0,0,0-10.58-3.44,37.93,37.93,0,0,0-9.39-5.95q-20.22-9-41.14-16.27a37.69,37.69,0,0,0-10.93-2.06,37.89,37.89,0,0,0-10.06-4.72c-14.11-4.25-28.42-7.9-42.84-11a38.08,38.08,0,0,0-11.07-.68,38.07,38.07,0,0,0-10.54-3.41c-7.28-1.23-14.57-2.34-21.89-3.27s-14.64-1.65-22-2.28a37.86,37.86,0,0,0-11.09.69,37.84,37.84,0,0,0-10.88-2.1q-22.1-.94-44.23,0a37.62,37.62,0,0,0-10.92,2.07,37.56,37.56,0,0,0-11.09-.72q-22,1.83-43.9,5.51a38,38,0,0,0-10.59,3.44,37.55,37.55,0,0,0-11.09.7q-21.64,4.59-42.85,11a38,38,0,0,0-10.08,4.75,38.22,38.22,0,0,0-10.9,2.09q-20.88,7.29-41.12,16.29a37.89,37.89,0,0,0-9.41,6,37.92,37.92,0,0,0-10.52,3.44q-19.8,9.84-38.74,21.33a37.94,37.94,0,0,0-8.52,7,38,38,0,0,0-10.07,4.74q-18.42,12.26-35.75,26a37.48,37.48,0,0,0-7.58,8.06,37.71,37.71,0,0,0-9.39,6q-16.76,14.45-32.25,30.26a37.52,37.52,0,0,0-6.52,9,37.8,37.8,0,0,0-8.57,7.08q-14.82,16.41-28.24,34a38.08,38.08,0,0,0-5.39,9.79,38.25,38.25,0,0,0-7.58,8q-12.64,18.15-23.74,37.32a37.84,37.84,0,0,0-4.11,10.39,37.89,37.89,0,0,0-6.52,9q-10.26,19.61-18.83,40a37.84,37.84,0,0,0-2.77,10.77,37.73,37.73,0,0,0-5.35,9.75q-7.71,20.74-13.61,42.09a37.81,37.81,0,0,0-1.39,11,38.27,38.27,0,0,0-4.08,10.34q-5,21.54-8.24,43.46a38.09,38.09,0,0,0,0,11.08,37.54,37.54,0,0,0-2.75,10.74q-2.32,22-2.84,44.11a44.53,44.53,0,0,1,0,22q.44,22.11,2.72,44.15a44.56,44.56,0,0,1,2.76,21.91q3.21,21.88,8.28,43.45a37.69,37.69,0,0,0,4.08,10.3,38.11,38.11,0,0,0,1.4,11.09q6,21.3,13.72,42.05a37.66,37.66,0,0,0,5.34,9.69,37.85,37.85,0,0,0,2.78,10.82q8.58,20.39,18.88,40a38.15,38.15,0,0,0,6.54,9,38,38,0,0,0,4.08,10.31q11.08,19.15,23.71,37.33a38.08,38.08,0,0,0,7.62,8.12,38,38,0,0,0,5.33,9.68q13.37,17.61,28.16,34.1a38,38,0,0,0,8.58,7.1,37.8,37.8,0,0,0,6.5,9q15.47,15.81,32.21,30.29a37.91,37.91,0,0,0,9.34,6,38.24,38.24,0,0,0,7.62,8.13q17.32,13.77,35.78,26a37.66,37.66,0,0,0,10,4.74,37.85,37.85,0,0,0,8.58,7.11q18.92,11.47,38.77,21.32a37.78,37.78,0,0,0,10.57,3.43,37.91,37.91,0,0,0,9.4,6q20.2,9,41.14,16.26a37.69,37.69,0,0,0,10.93,2.06,38,38,0,0,0,10.05,4.73q21.18,6.38,42.85,10.95a37.73,37.73,0,0,0,11.07.68,38.09,38.09,0,0,0,10.54,3.42c7.28,1.23,14.57,2.34,21.89,3.26s14.64,1.66,22,2.28a37.86,37.86,0,0,0,11.09-.68,37.83,37.83,0,0,0,10.88,2.09q22.1,1,44.23.05a37.74,37.74,0,0,0,10.92-2.07,37.9,37.9,0,0,0,11.09.72q22-1.83,43.9-5.52a37.89,37.89,0,0,0,10.59-3.43,38.21,38.21,0,0,0,11.09-.7q21.65-4.61,42.85-11a37.64,37.64,0,0,0,10.08-4.75,37.88,37.88,0,0,0,10.9-2.09q20.88-7.29,41.11-16.28a38,38,0,0,0,9.42-6,37.75,37.75,0,0,0,10.51-3.44q19.82-9.86,38.74-21.33a37.77,37.77,0,0,0,8.53-7,38.15,38.15,0,0,0,10.06-4.74q18.42-12.26,35.76-26a37.92,37.92,0,0,0,7.58-8.05,38.37,38.37,0,0,0,9.39-6q16.76-14.45,32.25-30.27a44.08,44.08,0,0,1,15.09-16q14.82-16.42,28.24-34a37.8,37.8,0,0,0,5.38-9.8,37.28,37.28,0,0,0,7.58-8.05q12.64-18.15,23.75-37.31a44.17,44.17,0,0,1,10.63-19.36q10.26-19.6,18.83-40a37.89,37.89,0,0,0,2.56-9.15l160-43.66q6.27,1.35,12.65,2.16A145.34,145.34,0,0,0,1933,2491.29a56.51,56.51,0,0,0,22.18-15.69c12.53-14.73,14.36-32.4,10.61-49.7C1992,2418.69,2017.4,2408,2047,2391a203.56,203.56,0,0,0,22.89-15.24c19.85-15.34,38-36.5,39.26-62.76,1.18-24.95-12.95-44.76-32.72-58.45a32.87,32.87,0,0,0-14.28-5.71,189,189,0,0,0-50.28-.62c-.44.05-.81.1-1.24.17a172.47,172.47,0,0,1-46.18.36c34.64-89.84,68.75-179.86,104-269.49,25.45-64.7,51.24-129.38,78.4-193.38,10.7-25.21,21.63-50.39,33.18-75.23,3.6-7.75,7.31-15.66,11.18-23.5,17.07,8.47,30,20.32,43.82,38.06l72.33,92.88a37.32,37.32,0,0,0-4,3.92q-14.72,16.54-28,34.26a44.16,44.16,0,0,1-12.84,18q-12.51,18.25-23.43,37.52a44.18,44.18,0,0,1-10.5,19.43q-10.08,19.68-18.48,40.18a38.26,38.26,0,0,0-2.67,10.79,37.48,37.48,0,0,0-5.29,9.78q-7.53,20.8-13.29,42.19a44.41,44.41,0,0,1-5.3,21.38q-4.86,21.57-7.94,43.5a38.32,38.32,0,0,0,.09,11.12,37.62,37.62,0,0,0-2.66,10.73q-2.14,22-2.48,44.16a44.46,44.46,0,0,1,.17,22q.61,22.11,3.08,44.11a44.28,44.28,0,0,1,2.89,21.86c2.25,14.57,5.15,29,8.61,43.38a44.41,44.41,0,0,1,5.63,21.33q6.09,21.27,14,42a37.55,37.55,0,0,0,5.44,9.7,38,38,0,0,0,2.85,10.76q8.73,20.33,19.17,39.88a44.19,44.19,0,0,1,10.79,19.23q11.22,19,24,37.13a38.11,38.11,0,0,0,7.7,8.06,37.54,37.54,0,0,0,5.39,9.62q6.75,8.76,13.85,17.26t14.59,16.6a44.24,44.24,0,0,1,15.17,15.94q15.59,15.7,32.44,30.07a44.41,44.41,0,0,1,17.08,14q17.43,13.63,36,25.75a44.66,44.66,0,0,1,18.73,11.69q19,11.32,38.93,21a44.52,44.52,0,0,1,20.05,9.22q20.28,8.82,41.24,16a44.3,44.3,0,0,1,21,6.6q21.24,6.23,42.92,10.65a44.19,44.19,0,0,1,21.66,4q21.84,3.51,43.92,5.18a44,44,0,0,1,22,1.23q22.11.77,44.22-.33a44.12,44.12,0,0,1,22-1.53q22-2,43.84-5.81a44.27,44.27,0,0,1,21.64-4.3q21.6-4.76,42.77-11.28a44.43,44.43,0,0,1,20.94-7q20.85-7.43,41-16.61a44.52,44.52,0,0,1,19.89-9.55q19.74-10,38.57-21.66a44.33,44.33,0,0,1,18.51-11.95q18.32-12.39,35.55-26.31a44.18,44.18,0,0,1,16.83-14.15q16.64-14.57,32-30.47a44,44,0,0,1,15-16.17q14.7-16.54,28-34.26a38,38,0,0,0,5.29-9.81,37.37,37.37,0,0,0,7.55-8.14q12.51-18.26,23.43-37.53a44.07,44.07,0,0,1,10.5-19.42q10.08-19.7,18.47-40.19a44.28,44.28,0,0,1,8-20.57q7.53-20.81,13.28-42.18a44.5,44.5,0,0,1,5.31-21.38q4.86-21.57,7.94-43.5a44.35,44.35,0,0,1,2.57-21.87q2.14-22,2.48-44.14a44.62,44.62,0,0,1-.18-22q-.6-22.11-3.08-44.12a44.41,44.41,0,0,1-2.88-21.85c-2.25-14.58-5.15-29.05-8.61-43.39a38,38,0,0,0-4.15-10.27,38.46,38.46,0,0,0-1.47-11.07q-6.1-21.26-14-42a44.12,44.12,0,0,1-8.29-20.46q-8.73-20.33-19.17-39.87a44.07,44.07,0,0,1-10.79-19.23q-11.24-19.07-24-37.13a44.17,44.17,0,0,1-13.08-17.68c-4.51-5.84-9.11-11.61-13.86-17.26s-9.62-11.15-14.59-16.6a44.38,44.38,0,0,1-15.17-15.95q-15.58-15.71-32.44-30.06a44.55,44.55,0,0,1-17.08-14q-17.43-13.62-36-25.75a44.71,44.71,0,0,1-18.72-11.69q-19-11.33-38.93-21a44.52,44.52,0,0,1-20.05-9.22q-20.28-8.84-41.25-16a37.35,37.35,0,0,0-10.95-2,38,38,0,0,0-10.08-4.63q-21.22-6.21-42.92-10.64a37.33,37.33,0,0,0-11-.6,37.94,37.94,0,0,0-10.63-3.37q-21.84-3.51-43.92-5.17a38.11,38.11,0,0,0-11.08.77,37.62,37.62,0,0,0-10.9-2q-22.11-.78-44.22.32a44.28,44.28,0,0,1-22,1.54q-22,2-43.84,5.81a38.1,38.1,0,0,0-10.6,3.52,37.63,37.63,0,0,0-11,.78q-21.6,4.74-42.77,11.27a44.33,44.33,0,0,1-20.94,7q-20.85,7.43-41,16.61a44.64,44.64,0,0,1-19.9,9.56q-19.72,10-38.57,21.66a38,38,0,0,0-6.45,5l-84.45-108.88-.21-.27c-21.69-27.39-47.51-47.48-76.87-52.56L2161,1456.76l5.14-4.8.35.16c1,.46,1.86.81,2.89,1.18,23,8.21,50.84,12.78,69-8.18,14-16.17,12.15-37,4.77-55.4-15.7-41.71-44.18-77.19-88-78.14L2113,1266.34c-.34-1-.7-2-1.07-3a33.08,33.08,0,0,0-14-16.93c-10.37-6.44-20.56-13.06-30.66-19.79a34.27,34.27,0,0,0-4.86-25.29c-13.41-20.87-20.24-29.75-21.81-52,2.75-8.29,5-17.25,7.21-25.29,4.28-15.64,8.42-31.3,12.74-46.92,3.89-14,7.87-28.1,12.35-42,2-6.16,5.2-16.8,8.41-22.33,14.6-25.16,18.48-56.8,14.52-87,20.07,11.42,42.67,17.54,64.71,7.54a57.43,57.43,0,0,0,23-19.21,34,34,0,0,0,4.21-7.78c.82-.05,1.65-.12,2.51-.23a50.2,50.2,0,0,0,32.39-17.07,57.85,57.85,0,0,0,7.08-2.8c13.82,3.67,28.12,2.82,40.45-7.8A40.22,40.22,0,0,0,2282.3,860q10-25.26,20-50.54l4.85-2.42a32.58,32.58,0,0,0,5.74-3.61l21.47-16.65,27.7,20.28a33,33,0,0,0,16.72,6.45c21.56,2.26,40-9.16,49-28.65a32.66,32.66,0,0,0,2.76-9.06c9.69-61.25,1.79-115.41-27.56-170.25-65.66-122.68-212.5-211.89-353.5-189.61a33.52,33.52,0,0,0-26.12,20.14c-16.54,37.67-22.41,84.27-24.65,125.66-7.46,17.71-9.48,37.08-8.42,56.24q-4.76,5.12-9.54,10.2a36.53,36.53,0,0,0-3,3.64c-6-3.21-12-6.48-18.33-9.36a198.74,198.74,0,0,0-54.05-15.89c-61.67-9-128.14,9.77-184.77,32.81-41.37,16.84-83.66,40-122.34,62.24a1730.67,1730.67,0,0,0-159.58,103.49c-28.26,20.71-55.88,42.45-82.26,65.53-67.52,52-144.71,118-193.08,188.46-68.51,99.74-32.89,226.58,39.06,313.41,27.37,33,60.24,63,96.64,85.93l2.16,2.39,58.75,88.54a855.73,855.73,0,0,1-215.81,47.6,32.05,32.05,0,0,0-3.79.56c-57.12,11.66-81.75,54.62-50,106.38a33.27,33.27,0,0,0,21.69,15.56c45.65,10.38,97.25,19,145.41,17.28l162,270.1Q1417,2011.44,1414.64,2016Zm-115.44,169.9-121.76,105.3a34.73,34.73,0,0,0-14.13-6.13c-3.64-.71-7.3-1.31-11-1.77a165.95,165.95,0,1,0,49.22,315.1l23.75,3.3q15.29,27.44,30.55,54.88c1,24.19,7,49.69,26.4,64.81a321.56,321.56,0,0,1-210.71,46.16c-176.49-22.29-301.47-183.43-279.17-359.92S975.8,2106.2,1152.29,2128.5A320.63,320.63,0,0,1,1299.2,2185.94Z"
     id="path12" />
  <path
     class="cls-1"
     d="M1375.4,1107.75a586.32,586.32,0,0,0-93,9q49.63-24,93-9m-128.19,37.66c77.36-15.7,148,0,137.27,27.62,21.67-50.87,120.56-8.39,170.48,6.06-31.7-35.5-115-64-196.45-47.47C1309.15,1147.34,1247.21,1145.41,1247.21,1145.41Zm168.07-207.49c42.49-6.82,93.58-8.35,144-3.21-33.3-19.72-76.57-28.94-107.17-28.17C1511,856,1584.34,810,1643.36,782.88c63.06-29,126.49-86.71,196.05-95.77-79.51,42.42-104.62,61.54-125.87,83.49-32.73,33.81-77.6,59-27.16,69.72-18.2,13.29-36.51,27.06-53.22,41.83-52.4-7.84-110.2-9.86-134.69-1.45,36.07,6.44,70.65,24.4,96.69,41.47a176,176,0,0,0-14.72,22.71c-8.94,23.3,1.77,52,29.31,75.44l-140.91-69.7c-3.76,22.92,48.92,51.27,101,70.85-49.37,3-106.63-32.72-145.83-47.86-31.94-12.33-1.15,42.35,44.47,87.09-14.63-8.15-6.61,4.23-26.54-14.65-55.92-53-121.12-4.71-140.71,14.88,14.43-15.48,163,28.67,197.25,57.3-74-21.68-212.72-45.08-253.39-18.15C1293.32,1034.47,1350.41,985.57,1415.28,937.92ZM1507,2633.28l20.87-5.7a429.61,429.61,0,0,1-394.46,250.72,436.79,436.79,0,0,0,373.59-245Zm-260.27-121.62,27.26,9.78,53.71,109.93q15.15,11.37,22.82,22.41l379.88-103.68a111.41,111.41,0,0,1-41.5-50.81l-89.3,21.49q-3,20.08-7.59,39.9a3.6,3.6,0,0,1-3.88,2.78l-11.4-1.13c-.78,3.17-1.59,6.34-2.43,9.49l8.92,3.82-39,10.64a430.28,430.28,0,0,0,17.27-70.62l-16.32-2.75a437.4,437.4,0,0,1-20.52,78.71l-51.17,14a394,394,0,0,0,28.54-100l-20.84-3.52a372.44,372.44,0,0,1-34.34,110.75l-21.86,6a355.3,355.3,0,0,0,39.76-119.49L1262,2465.12A131.12,131.12,0,0,1,1246.68,2511.66Zm1463.49,94.59A435.87,435.87,0,0,0,2972,2504.35c184.51-155,208.42-430.27,53.39-614.78a437.42,437.42,0,0,0-81.49-75.23,429.35,429.35,0,0,1,98.93,86.6c152.48,181.48,129,452.21-52.52,604.69A429,429,0,0,1,2710.17,2606.25Zm-785.05-823.72,100.72-84c10.51-8,29.17-4.73,25.51,12.76L1858.2,2249.89q-10.21-5.23-20.79-11.39l1-.21c-10.72-42.22-4.5-101.41,13.79-192.29C1883.81,1958.66,1906.8,1871.21,1925.12,1782.53Zm124-191.69-104.68,88.75,1.23-7.23c21.28-48.62,29.62-97-33.89-152.72-75.31-131.75-184.84-224.79-248.23-260.81-22.37.53-42.09-1.43-33.25,11.07l3,7,5.82,5c97.24,60.86,182.17,146.85,246.34,257.13l2.1,2.85,2.65,2.33c12,10.53,28.38,25.76,33,42.38q-69.3,27.29-140.13,86.47,19.35-39.29,44.06-65.32a802.1,802.1,0,0,1-268.36-106.24c148,32.12,268.4,43.77,287,18.48-54.12-12.86-82.2-27.85-100.73-39.59.66-19,48.07-34.25-20.22-39-62-4.27-124.43-23.52-116.53-31.19,31.94,3.47,61.23,4.54,93-3.92,25.55-6.8,20-18.59-19.13-22.63-36.62-3.78-57.6-5.26-64.33-21.64,72.52,2.23,75.8-12.28,44.72-24.69-22-4.5-141.14,3.31-239.89,21.09,55.56-19.29,133.56-35.1,176.89-43.78-2.41-21.67-52.68-23.13-81.81-6.41q-66.3,19.11-119.34,8.07,65.71-15,102.3-33.37c50.07-21.26,67-30.32,97.11-23.11-71.88-24.41-180-72.7-182.25-94.1,35.06,18.52,168.17,58.31,253,74.85,19.54-11.63,65.25-18.87,93.58-36.33-39.6-40-72.6-88.23-103.23-145,38.71,58.8,90,106.93,148.87,147.65a390.82,390.82,0,0,1,56.79,35.85q25.24,14.6,51.66,27.87c-3.85,3-7.58,6.28-10.9,9.39,22.39,24.36,47.16,57.06,57.53,80.56,16.64,20.26,30.37,29.11,46.7,35.52-35.92,32.88-31.52,30.39-1.51,64.69l47.74,59.67C2074.51,1546.35,2079.61,1560.86,2049.1,1590.84Zm-555.6,472.54-14.12-23.52-28.4,24.56c-1.5-1.32-3-2.64-4.51-3.94a22.46,22.46,0,0,0-9.77-4.94,22.75,22.75,0,0,0-1.76-3.3q11.55-23.73,24.17-46.18L1276,1700.93q-60.49,6.81-156.4-15-26.75-43.62,27.56-54.7,139.38-12.54,264.93-65.39l-83.72-126.19-7.15-7.89c-33.24-20.27-65.19-48.35-92.4-81.2-62.09-74.93-96.62-185.47-37.19-272,40-58.2,109-121.67,186.58-181.35,119.52-104.83,286.78-198.1,355.29-226,155.23-63.17,209.63-17.6,240.3-2.74,33.53,30.22,53.22,75.65,57.05,116.61,8.8-28.22-6.53-87.8-25.09-133.37,6-6.39,13-13.83,20.22-21.73q-5.28-37.15,6.69-59.83,3.57-78,22.13-120.27c127.39-20.13,259.64,63.17,317.81,171.87,25.74,48.1,32.51,94.27,23.91,148.65q-4.58,9.89-14.18,8.87l-103.25-75.56-77.82-28.9L2275,722.29l42.2,34.24-25.43,19.73-16.65,8.3-25.47,64.38q-2.33,10.63-24.1-1.31-12.18,12-23.7,9.14-4.28,13.93-15.8,15.34l-13.65-1.73q-13.21.18-16.88,23.87-18.64,26.09-68.88-17.37-7.56-17.77-18-63,1.82,43.88,7,68.48-20-1.8-26.67,5.3c21.33,42.34,15,86.71,2.64,107.95-13.83,23.85-38.35,130.48-45.63,148.51.82,30.64,5.91,42.13,27.54,75.8-17.42-14.14-31.48-26-37.64-32-31.63-58-71.06-108.08-71.06-108.08,55.29-57.81,38.92-33.05,62.55-79.44-94.55,80.29-44.9,62.5-125.61-4.21,39.24-39.36,63.67-60.1,78.17-91.11,17.67-37.78,22.54-90.72,1.13-130.17,6.49,65,4.83,101.57-41.3,146.74-40.61,39.76-50.28,47.81-55.56,48.78-10.1,1.86-8.67-2-58-21,28.85,6.31,184.12,233.44,187.57,254.82,17.77,12,65,45.8,106.07,71.31a49.69,49.69,0,0,1,2.3,8l59.31,63.61q45.55-9.48,69.66,54.93,14,34.53-30.11,18.73-18.82-8.75-33.06,1l-29.47,27.48c-.54,2.81-1.13,5.49-1.79,8l112.65,133.77c-7,5.23-13.5,10.48-19.46,15.56,26.73-13.17,57.19-12.22,93.27,33.35L2406.89,1774q7.41-5.45,15-10.6a3.6,3.6,0,0,1,4.74.59l7.6,8.56q4.09-2.7,8.23-5.31l-4.67-10.46a3.61,3.61,0,0,1,1.41-4.56q17.58-10.87,36-20.25a3.61,3.61,0,0,1,4.63,1.19l6.47,9.45q4.41-2.17,8.85-4.25l-3.33-11a3.64,3.64,0,0,1,2-4.36q18.83-8.57,38.32-15.51a3.61,3.61,0,0,1,4.44,1.75l5.23,10.19q4.65-1.61,9.32-3.11l-1.93-11.29a3.62,3.62,0,0,1,2.5-4.08q19.76-6.11,40-10.53a3.61,3.61,0,0,1,4.19,2.3l3.91,10.76c3.21-.68,6.41-1.32,9.62-1.93l-.49-11.42a3.61,3.61,0,0,1,3-3.73q20.37-3.59,41-5.43a3.59,3.59,0,0,1,3.86,2.8l2.53,11.16c3.26-.27,6.51-.5,9.77-.7l.95-11.38a3.61,3.61,0,0,1,3.43-3.32q20.66-1,41.35-.3a3.6,3.6,0,0,1,3.48,3.27l1.12,11.37c3.26.15,6.51.34,9.77.56l2.36-11.19a3.62,3.62,0,0,1,3.83-2.86q20.61,1.58,41.06,4.84a3.6,3.6,0,0,1,3,3.68l-.31,11.45q4.82.83,9.62,1.76l3.75-10.82a3.6,3.6,0,0,1,4.15-2.36q20.27,4.13,40.13,10a3.61,3.61,0,0,1,2.57,4l-1.75,11.3q4.68,1.42,9.35,2.94l5.08-10.28a3.62,3.62,0,0,1,4.41-1.82q19.59,6.63,38.56,14.92a3.62,3.62,0,0,1,2,4.32l-3.15,11q4.47,2,8.92,4.09l6.32-9.53a3.62,3.62,0,0,1,4.6-1.26q18.6,9,36.37,19.64a3.6,3.6,0,0,1,1.48,4.54l-4.5,10.51q4.2,2.57,8.33,5.2l7.46-8.66a3.6,3.6,0,0,1,4.73-.67q17.31,11.32,33.62,24.07a3.62,3.62,0,0,1,.89,4.69l-5.78,9.86q3.82,3.06,7.59,6.21l8.48-7.66a3.61,3.61,0,0,1,4.78-.06q15.73,13.41,30.33,28.1a3.62,3.62,0,0,1,.29,4.77l-7,9q3.4,3.52,6.74,7.1l9.37-6.53a3.61,3.61,0,0,1,4.75.53c4.65,5.09,9.22,10.25,13.66,15.53s8.73,10.67,12.94,16.13a3.61,3.61,0,0,1-.29,4.77l-8.05,8.11q2.94,3.9,5.83,7.86l10.12-5.31a3.6,3.6,0,0,1,4.64,1.12q11.94,16.89,22.46,34.72a3.6,3.6,0,0,1-.89,4.69l-9,7q2.45,4.24,4.82,8.54l10.71-4a3.59,3.59,0,0,1,4.46,1.69q9.74,18.24,17.91,37.25a3.62,3.62,0,0,1-1.47,4.55l-9.82,5.85q1.89,4.53,3.69,9.11l11.13-2.63a3.6,3.6,0,0,1,4.21,2.24q7.35,19.32,13.07,39.21a3.62,3.62,0,0,1-2,4.33l-10.47,4.57q1.29,4.74,2.49,9.5l11.36-1.21a3.62,3.62,0,0,1,3.91,2.76q4.86,20.09,8.05,40.54a3.6,3.6,0,0,1-2.56,4l-11,3.24c.46,3.23.88,6.47,1.28,9.72l11.43.22a3.61,3.61,0,0,1,3.53,3.22q2.31,20.55,2.89,41.25a3.61,3.61,0,0,1-3.05,3.68l-11.3,1.83c.06,3.26.08,6.52.08,9.79l11.33,1.66a3.61,3.61,0,0,1,3.1,3.64q-.28,20.67-2.32,41.28a3.6,3.6,0,0,1-3.48,3.27l-11.43.4c-.34,3.24-.71,6.49-1.12,9.72l11,3.06a3.6,3.6,0,0,1,2.61,4q-2.85,20.47-7.42,40.67a3.63,3.63,0,0,1-3.87,2.82l-11.37-1c-.76,3.18-1.54,6.34-2.37,9.51l10.55,4.41a3.61,3.61,0,0,1,2.1,4.29q-5.39,20-12.42,39.44a3.6,3.6,0,0,1-4.18,2.3l-11.17-2.45q-1.72,4.59-3.55,9.14l9.91,5.71a3.61,3.61,0,0,1,1.55,4.52q-7.84,19.13-17.27,37.56a3.61,3.61,0,0,1-4.44,1.76l-10.79-3.84q-2.3,4.33-4.67,8.64l9.13,6.91a3.61,3.61,0,0,1,1,4.68q-10.18,18-21.89,35.06a3.6,3.6,0,0,1-4.62,1.19l-10.22-5.17c-1.88,2.69-3.78,5.34-5.72,8l8.2,8a3.6,3.6,0,0,1,.36,4.76q-12.39,16.56-26.15,32a3.62,3.62,0,0,1-4.74.6l-9.49-6.41c-2.2,2.42-4.41,4.82-6.66,7.19l7.12,9a3.62,3.62,0,0,1-.23,4.78q-14.37,14.86-30,28.5a3.61,3.61,0,0,1-4.77,0l-8.61-7.54c-1.23,1.07-2.47,2.14-3.71,3.19s-2.51,2.08-3.78,3.11l5.94,9.78a3.6,3.6,0,0,1-.83,4.7q-16.09,13-33.23,24.6a3.6,3.6,0,0,1-4.74-.6l-7.61-8.56q-4.08,2.7-8.22,5.32l4.67,10.45a3.61,3.61,0,0,1-1.41,4.57q-17.58,10.86-36,20.24a3.61,3.61,0,0,1-4.63-1.19l-6.47-9.44q-4.41,2.16-8.85,4.25l3.32,11a3.6,3.6,0,0,1-2,4.35q-18.82,8.57-38.31,15.52a3.63,3.63,0,0,1-4.45-1.76l-5.23-10.19q-4.64,1.61-9.31,3.11l1.92,11.29a3.63,3.63,0,0,1-2.5,4.08q-19.76,6.11-40,10.53a3.6,3.6,0,0,1-4.18-2.3l-3.91-10.75c-3.2.67-6.41,1.32-9.62,1.93l.49,11.42a3.6,3.6,0,0,1-3,3.72q-20.37,3.59-41,5.44a3.61,3.61,0,0,1-3.86-2.81l-2.54-11.15c-3.25.26-6.51.49-9.76.69l-.95,11.38a3.61,3.61,0,0,1-3.44,3.33q-20.66,1-41.34.3a3.63,3.63,0,0,1-3.49-3.27l-1.11-11.37q-4.89-.24-9.77-.57l-2.36,11.19a3.62,3.62,0,0,1-3.83,2.87q-20.62-1.59-41.07-4.84a3.61,3.61,0,0,1-3-3.68l.32-11.45c-3.22-.56-6.43-1.14-9.63-1.77l-3.75,10.83a3.61,3.61,0,0,1-4.15,2.36q-20.26-4.12-40.13-10a3.61,3.61,0,0,1-2.57-4l1.75-11.31c-3.13-.95-6.24-1.92-9.35-2.94l-5.08,10.28a3.62,3.62,0,0,1-4.42,1.82q-19.58-6.63-38.55-14.92a3.59,3.59,0,0,1-2-4.32l3.15-11q-4.48-2-8.93-4.09l-6.31,9.53a3.62,3.62,0,0,1-4.61,1.26q-18.6-9-36.38-19.64a3.62,3.62,0,0,1-1.48-4.54l4.51-10.51q-4.2-2.55-8.33-5.2l-7.46,8.66a3.61,3.61,0,0,1-4.73.67q-17.31-11.31-33.61-24.06a3.6,3.6,0,0,1-.9-4.69l5.79-9.86c-2.55-2-5.09-4.12-7.6-6.21l-8.48,7.65a3.62,3.62,0,0,1-4.78.07q-15.74-13.41-30.32-28.11a3.59,3.59,0,0,1-.3-4.76l7-9.06q-3.4-3.51-6.74-7.1l-9.37,6.53a3.59,3.59,0,0,1-4.75-.53c-4.65-5.09-9.22-10.25-13.66-15.53s-8.73-10.67-13-16.13a3.6,3.6,0,0,1,.31-4.76l8-8.11q-2.94-3.9-5.83-7.87l-10.12,5.31a3.6,3.6,0,0,1-4.64-1.11q-11.94-16.89-22.46-34.72a3.61,3.61,0,0,1,.89-4.7l9-7c-1.63-2.84-3.23-5.68-4.81-8.55l-10.71,4a3.61,3.61,0,0,1-4.46-1.69q-9.73-18.26-17.91-37.26a3.61,3.61,0,0,1,1.48-4.55l9.81-5.85q-1.89-4.53-3.69-9.1l-11.12,2.62a3.62,3.62,0,0,1-4.23-2.24q-7.34-19.32-13.06-39.21a3.59,3.59,0,0,1,2-4.32l10.47-4.58c-.86-3.16-1.69-6.32-2.49-9.5l-11.36,1.21a3.6,3.6,0,0,1-3.91-2.75q-4.86-20.1-8-40.55a3.61,3.61,0,0,1,2.56-4l11-3.23c-.47-3.24-.89-6.48-1.29-9.72l-11.43-.23a3.61,3.61,0,0,1-3.54-3.22q-2.29-20.55-2.88-41.25a3.62,3.62,0,0,1,3-3.68l11.3-1.83q-.09-4.89-.08-9.79l-11.33-1.65a3.61,3.61,0,0,1-3.1-3.64q.29-20.68,2.32-41.28a3.61,3.61,0,0,1,3.48-3.28l11.42-.39c.35-3.25.72-6.49,1.13-9.73l-11-3.06a3.61,3.61,0,0,1-2.62-4q2.86-20.49,7.43-40.68a3.6,3.6,0,0,1,3.87-2.81l11.37,1q1.14-4.76,2.36-9.51l-10.54-4.41a3.61,3.61,0,0,1-2.1-4.29q5.39-20,12.42-39.43a3.6,3.6,0,0,1,4.18-2.31l11.17,2.46c1.15-3.07,2.34-6.11,3.55-9.15l-9.91-5.71a3.61,3.61,0,0,1-1.55-4.52q7.84-19.12,17.27-37.55a3.61,3.61,0,0,1,4.44-1.77l10.8,3.85q2.28-4.35,4.66-8.64l-9.13-6.92a3.58,3.58,0,0,1-1-4.67q10.2-18,21.88-35.07a3.61,3.61,0,0,1,4.63-1.18l10.23,5.16c1.87-2.68,3.78-5.34,5.7-8l-8.19-8a3.62,3.62,0,0,1-.37-4.76q12.39-16.56,26.16-32a3.61,3.61,0,0,1,4.74-.59l8.05,5.43,53.83,69.12c-120.81,143.9-124.6,358,.43,506.83,140.08,166.72,388.78,188.32,555.5,48.25s188.31-388.79,48.24-555.51c-133.72-159.15-366.41-186-532.29-66.26l12.95,16.69c157-112.82,376.77-87.27,503.17,63.16,132.57,157.79,112.13,393.17-45.66,525.74s-393.17,112.13-525.73-45.66c-117.33-139.63-114.79-340-3.31-476.16l1.6,2.05,8.92,11.45c-104.14,130-105.68,319.55,5.55,451.94,126.65,150.73,351.51,170.26,502.25,43.61s170.26-351.51,43.61-502.24c-120.6-143.55-330.28-168.09-480.19-60.72l98.47,127a195.31,195.31,0,0,1,133.37-31.42c107.42,13.58,183.49,111.66,169.92,219.08s-111.66,183.49-219.08,169.92-183.49-111.66-169.92-219.07a195.59,195.59,0,0,1,19.89-64.67l22.67,29.11a163.5,163.5,0,1,0,63.24-77l57,73.53a70.52,70.52,0,1,1-24.84,106.74c15.29,4.94,26.09-1.66,31.63-12.8-11.73-.31-27.05-8.37-45.46-29L2262.12,1704c-25.14-32.29-49.69-49.18-87.14-59.5-54.29,92.08-206.31,498.21-257.21,629.45,38.08,11.17,71,12.41,97.93,8.37,18.06-2.05,31.61-1.06,41.12.42,41.48,28.74,2.1,61.58-27,78.4-56.33,32.52-92.63,39-162.86,45.81-30.75.89-62.57,7.54-95.13,18.32-3,1-6.18,2.08-9.44,3.2a157.91,157.91,0,0,0-14.92,11l20.84-2.14a35.88,35.88,0,1,0,61.19,33.49l0-.07,0-.08,0-.07h0l.08-.3,0-.07v-.08l0-.07,0-.08,0-.14,0-.08.08-.38,0-.07,0-.08.08-.38,0-.07v-.08l0-.05v-.1l0-.08.12-.61v-.16l0-.07.13-.78h0c0-.31.09-.61.12-.92l.08-.65.07-.66h0l0-.65h0l0-.65h0l0-.65h0l0-.64h0v-.64h0v-.64h0l0-.64h0l0-.64h0l0-.63h0l0-.63h0l-.06-.62h0l-.08-.62h0l-.08-.62h0l-.1-.62h0l-.1-.62h0l-.12-.61h0l-.12-.61h0l-.13-.6h0l-.15-.6h0l-.16-.6h0l-.16-.59h0l-.17-.59h0l-.18-.58h0l-.2-.58h0l-.21-.57h0l-.22-.57h0l-.22-.56h0l-.23-.56h0l-.25-.55h0l-.25-.55h0l-.26-.54h0l-.28-.54h0l-.28-.54h0l-.29-.53h0l-.29-.53h0l-.31-.52h0l-.32-.51h0l-.32-.51h0l-.33-.5h0l-.34-.49h0l-.35-.49h0l-.35-.48v0l-.36-.47h0l-.37-.47h0l-.38-.47h0l-.39-.45h0l-.4-.45h0l-.41-.45-.42-.45h0l-.41-.44h0l-.43-.43-.32-.31-.12-.11h0l-.44-.41h0l-.44-.4h0l-.1-.09-.83-.7h0l-.46-.38h0l-.48-.37h0l-.48-.37-.5-.36h0c-.33-.24-.67-.47-1-.69h0l.16,0q36.3-7.87,113.42-10.44c14.06,33-4.3,39.72-25.84,42.32-.14,2.68-.38,5.39-.73,8.11a110.9,110.9,0,0,1-123.92,96.12,112.67,112.67,0,0,1-17.32-3.59l-184.28,50.29c-.67,1.87-1.34,3.72-2,5.58a3.62,3.62,0,0,1-4.21,2.27l-11.16-2.54q-1.76,4.58-3.61,9.12l9.88,5.79a3.61,3.61,0,0,1,1.51,4.54q-8,19-17.59,37.4a3.62,3.62,0,0,1-4.46,1.73l-10.76-3.93q-2.31,4.33-4.72,8.61l9.08,7a3.62,3.62,0,0,1,.93,4.69q-10.35,17.89-22.2,34.87a3.6,3.6,0,0,1-4.63,1.16l-10.17-5.24c-1.9,2.67-3.81,5.32-5.76,7.94l8.11,8.06a3.61,3.61,0,0,1,.34,4.76q-12.53,16.47-26.41,31.82a3.59,3.59,0,0,1-4.74.56l-9.43-6.47q-3.32,3.61-6.7,7.14l7,9a3.62,3.62,0,0,1-.27,4.77q-14.49,14.77-30.15,28.3a3.61,3.61,0,0,1-4.78,0l-8.54-7.59c-2.49,2.1-5,4.17-7.56,6.22l5.86,9.82a3.6,3.6,0,0,1-.86,4.7q-16.2,12.84-33.43,24.33a3.61,3.61,0,0,1-4.74-.63l-7.54-8.62q-4.1,2.66-8.26,5.24l4.59,10.49a3.61,3.61,0,0,1-1.44,4.55q-17.68,10.72-36.22,19.94a3.61,3.61,0,0,1-4.62-1.21l-6.39-9.49q-4.41,2.14-8.86,4.19l3.24,11a3.6,3.6,0,0,1-2,4.34q-18.88,8.43-38.43,15.22a3.6,3.6,0,0,1-4.43-1.79l-5.15-10.2c-3.1,1-6.21,2.07-9.33,3l1.83,11.28a3.62,3.62,0,0,1-2.53,4.06q-19.79,6-40,10.28a3.61,3.61,0,0,1-4.17-2.33l-3.83-10.77q-4.82,1-9.65,1.83l.4,11.42a3.61,3.61,0,0,1-3,3.71q-20.39,3.43-41,5.15a3.6,3.6,0,0,1-3.84-2.83l-2.45-11.17c-3.26.23-6.53.43-9.79.59l-1,11.38a3.62,3.62,0,0,1-3.46,3.3q-20.67.84-41.35-.05a3.61,3.61,0,0,1-3.46-3.29l-1-11.39c-3.26-.17-6.52-.39-9.77-.63l-2.45,11.16a3.59,3.59,0,0,1-3.85,2.83c-6.87-.58-13.73-1.27-20.57-2.13s-13.66-1.9-20.46-3.05a3.6,3.6,0,0,1-3-3.7l.4-11.42c-3.21-.57-6.42-1.18-9.62-1.81L1013.6,2928a3.61,3.61,0,0,1-4.17,2.34q-20.23-4.29-40.06-10.24a3.61,3.61,0,0,1-2.53-4.06l1.83-11.27q-4.68-1.47-9.34-3l-5.15,10.2a3.6,3.6,0,0,1-4.42,1.79q-19.53-6.78-38.45-15.19a3.61,3.61,0,0,1-2-4.34l3.23-11c-3-1.36-5.94-2.76-8.88-4.18l-6.39,9.48a3.61,3.61,0,0,1-4.62,1.22q-18.52-9.2-36.22-19.91a3.62,3.62,0,0,1-1.44-4.56l4.58-10.47q-4.17-2.6-8.27-5.29l-7.53,8.61a3.6,3.6,0,0,1-4.74.63c-11.47-7.63-22.65-15.73-33.44-24.3a3.6,3.6,0,0,1-.85-4.7l5.87-9.84q-3.81-3.09-7.54-6.26l-8.55,7.6a3.6,3.6,0,0,1-4.78,0q-15.65-13.53-30.12-28.32a3.6,3.6,0,0,1-.26-4.77l7-9q-3.39-3.54-6.7-7.14l-9.44,6.48a3.62,3.62,0,0,1-4.75-.56q-13.83-15.39-26.33-31.89a3.62,3.62,0,0,1,.33-4.77l8.12-8.05q-2.92-3.92-5.77-7.9l-10.16,5.23a3.6,3.6,0,0,1-4.63-1.15q-11.82-17-22.17-34.91a3.61,3.61,0,0,1,.93-4.69l9-7q-2.4-4.26-4.72-8.58l-10.74,3.92a3.59,3.59,0,0,1-4.45-1.72q-9.6-18.32-17.66-37.39a3.6,3.6,0,0,1,1.51-4.53l9.86-5.78q-1.85-4.55-3.6-9.13l-11.16,2.54a3.6,3.6,0,0,1-4.2-2.26q-7.22-19.38-12.82-39.3a3.61,3.61,0,0,1,2.07-4.31l10.53-4.51q-1.28-4.74-2.44-9.51l-11.4,1.12a3.6,3.6,0,0,1-3.88-2.78q-4.72-20.11-7.74-40.6a3.62,3.62,0,0,1,2.59-4l11-3.15c-.45-3.25-.86-6.49-1.23-9.74l-11.45-.31a3.6,3.6,0,0,1-3.5-3.25q-2.16-20.57-2.54-41.27a3.6,3.6,0,0,1,3.07-3.65l11.32-1.74q0-4.91,0-9.8L622,2441.39a3.6,3.6,0,0,1-3.07-3.66q.45-20.67,2.65-41.26a3.59,3.59,0,0,1,3.5-3.24l11.44-.32c.18-1.62.36-3.24.56-4.86s.43-3.23.66-4.85l-11-3.14a3.62,3.62,0,0,1-2.58-4q3-20.46,7.7-40.62a3.6,3.6,0,0,1,3.88-2.78l11.4,1.12c.78-3.17,1.58-6.33,2.43-9.49l-10.53-4.51a3.6,3.6,0,0,1-2.07-4.3q5.53-19.92,12.72-39.33a3.61,3.61,0,0,1,4.2-2.28l11.17,2.55q1.75-4.59,3.61-9.13l-9.88-5.79a3.6,3.6,0,0,1-1.51-4.53q8-19.07,17.59-37.41a3.61,3.61,0,0,1,4.45-1.72l10.76,3.92q2.32-4.32,4.73-8.6l-9.08-7a3.62,3.62,0,0,1-.93-4.69q10.35-17.89,22.19-34.87a3.61,3.61,0,0,1,4.64-1.15l10.17,5.24c1.9-2.67,3.81-5.32,5.76-7.95l-8.11-8.05a3.61,3.61,0,0,1-.34-4.77q12.52-16.45,26.4-31.81a3.61,3.61,0,0,1,4.74-.57l9.44,6.47q3.31-3.6,6.7-7.14l-7-9a3.61,3.61,0,0,1,.27-4.77q14.48-14.76,30.15-28.3a3.62,3.62,0,0,1,4.78,0l8.54,7.59c2.49-2.1,5-4.17,7.55-6.22l-5.86-9.82a3.6,3.6,0,0,1,.87-4.69q16.2-12.86,33.43-24.34a3.63,3.63,0,0,1,4.74.63l7.54,8.63q4.1-2.67,8.26-5.24l-4.59-10.49a3.62,3.62,0,0,1,1.44-4.56q17.68-10.72,36.22-19.94a3.6,3.6,0,0,1,4.62,1.22l6.39,9.49q4.41-2.14,8.86-4.2l-3.24-11a3.61,3.61,0,0,1,2-4.34c12.58-5.61,25.42-10.67,38.43-15.22a3.61,3.61,0,0,1,4.43,1.79l5.15,10.21q4.65-1.58,9.33-3.06L966.85,1980a3.61,3.61,0,0,1,2.53-4q19.79-6,40-10.28a3.61,3.61,0,0,1,4.17,2.33l3.83,10.77q4.82-1,9.65-1.84l-.4-11.42a3.59,3.59,0,0,1,3-3.7q20.38-3.45,41-5.16a3.61,3.61,0,0,1,3.84,2.84l2.45,11.16c3.26-.23,6.53-.42,9.79-.59l1-11.38a3.59,3.59,0,0,1,3.46-3.29q20.67-.84,41.35,0a3.62,3.62,0,0,1,3.46,3.3l1,11.38q4.89.27,9.77.64l2.45-11.16a3.61,3.61,0,0,1,3.85-2.84c6.87.58,13.73,1.27,20.57,2.13s13.66,1.91,20.45,3.06a3.59,3.59,0,0,1,3,3.7l-.4,11.41c3.21.58,6.41,1.18,9.61,1.82l3.83-10.77a3.61,3.61,0,0,1,4.17-2.33q20.23,4.29,40.06,10.24a3.61,3.61,0,0,1,2.53,4l-1.83,11.28q4.68,1.46,9.34,3l5.14-10.21a3.62,3.62,0,0,1,4.43-1.79q19.53,6.78,38.44,15.2a3.6,3.6,0,0,1,2,4.33l-3.24,11q4.47,2.06,8.89,4.19l6.39-9.48a3.6,3.6,0,0,1,4.62-1.22q18.51,9.18,36.22,19.91a3.61,3.61,0,0,1,1.44,4.55l-4.58,10.47c2.78,1.73,5.53,3.5,8.28,5.29l7.52-8.61a3.61,3.61,0,0,1,4.74-.63q17.2,11.46,33.44,24.3a3.61,3.61,0,0,1,.85,4.7l-5.87,9.84q3.8,3.09,7.54,6.27l8.55-7.6a3.61,3.61,0,0,1,4.78,0l2.44,2.13L1399.42,2109q-15.64-12.08-32.3-22.63,15.87,11.27,30.73,24l-36.92,31.93a392.38,392.38,0,0,0-199.59-85.42c-216-27.29-413.29,125.71-440.59,341.74s125.71,413.3,341.74,440.59c161,20.34,311.51-59.45,389.08-190.81l-30.21,8.24c-76.26,112.93-211.78,179.86-356.22,161.61-204.46-25.83-349.26-212.52-323.43-417s212.53-349.26,417-323.43a371.32,371.32,0,0,1,186,78.51l-12.83,11.1a354.74,354.74,0,0,0-175.24-73.07c-195.33-24.68-373.68,113.65-398.36,309s113.66,373.67,309,398.35c130.89,16.54,254.14-40.15,328.64-138.11l-37.64,10.27a30.6,30.6,0,0,1-.68,8.94q-68.05,44.88-67.46-35.39L1247,2570l-51.42-7.15A131.56,131.56,0,1,1,1148,2317.46c3,.37,5.86.85,8.73,1.41L1135,2337.66c-28.57,35-33.92,52.14-30.81,62.36ZM1660,2340.88l-3.43-5.71-43.76,6.4q-1.11-5.25-2.34-10.46a24.53,24.53,0,0,1-5.32-20.76q-2.43-8.71-5.19-17.34a194.8,194.8,0,0,0,40,14.43L1538.87,2139q-5.28,6.06-10.62,12.41a22.92,22.92,0,0,0-4.23-2.79,22.56,22.56,0,0,0-4.3-10.06q-5.1-6.71-10.39-13.25l-14.66,12q5.08,6.28,10,12.72a3.62,3.62,0,0,1-.34,4.77l-8.11,8.05q2.92,3.93,5.77,7.9l10.16-5.22a3.6,3.6,0,0,1,4.63,1.15q11.81,17,22.17,34.91a3.62,3.62,0,0,1-.93,4.69l-9,7q2.4,4.26,4.72,8.58l10.74-3.92a3.62,3.62,0,0,1,4.45,1.73q9.6,18.32,17.66,37.38a3.61,3.61,0,0,1-1.51,4.54l-9.87,5.78q1.86,4.54,3.61,9.12l11.15-2.54a3.6,3.6,0,0,1,4.2,2.27q7.23,19.36,12.83,39.3a3.62,3.62,0,0,1-2.07,4.31l-10.53,4.5q1.28,4.74,2.44,9.52l11.39-1.13a3.62,3.62,0,0,1,3.89,2.78c.69,3,1.36,5.92,2,8.88l-38.91,5.69a427.43,427.43,0,0,0-89.08-177q-3.09-3.66-6.25-7.26l-4.68,3.83A434.2,434.2,0,0,1,1541.5,2352l-45.48,6.65a394.49,394.49,0,0,0-77.9-158.93l-14.65,11.95a375.8,375.8,0,0,1,73.76,149.72l-2.21.33-16.57,2.42-13.44,2a360.15,360.15,0,0,0-45.4-2.65c-31.21,0-78.75,4-83.74-28.21a160,160,0,0,1,4.72-56l-94.6,77.15a132,132,0,0,1,30.07,49.08l63.57-1.78,340-49.7Q1659.62,2347.51,1660,2340.88Zm76.4-35.89,13.26,20.88q20.71-5.23,46-33.49c18.76-21.25,41.09-29.08,56.43-27.15-20.91-16.63-31.79-16.91-54.4-6C1769.58,2272.75,1760.61,2302.19,1736.39,2305Zm-142.13-223.85,103.64,163.22c5.71-75.75,8.84-180.24,6.83-278.41l-27.38,22.33q.74,12.54,1.53,25.18C1654.51,2029.46,1625.77,2051.38,1594.26,2081.14ZM1444,1844.43q115-5.07,256.38,3.26c.11-45.59,6.9-93.92,13.15-145.46-101.87-43.93-248-176.93-330.37-238.71q130,134.3,288.51,262.39-.8,46.2-.23,94-60.3-3-115.61-3.5-4.29-20.2-9-47.54L1433,1597.27l-96.4,78Zm66.08,82.21q-6.51.52-13.17,1.12l5.81,9.14Q1506.32,1931.74,1510,1926.64Zm142.25-.58q-18-1.87-38.38-2.54l-77.29,66.84,14.65,23.06Zm88.27-75.77-.12.13c.66,7.55,1.31,15,1.76,22.27,2.83,45.53-1,90.33-.8,136l82.06,10.36c40.26-114.84,66.36-232.74,86.58-352.66a34.36,34.36,0,0,1,2.52-8.48c4.86-11.1,8.38-21.06,10.39-30.26-70.64,18.87-150.74,82.43-172,121.36-16.53,30.2-13.49,66.7-10.48,101.3Zm10.81,123c2.36-.75,8.66-.45,8.66-.45,17.27-102.88,11.44-161.17,3.67-197.75Z"
     id="path14" />
  <path
     class="cls-1"
     d="M574.78,2772.18q-29,6.06-45.36,13.33-4.29,20.1-4.28,20.1l31.35,28.13,8.67-10.44q.63-27.12.64-27.12l13.36-14.34-4.38-9.66"
     id="path16" />
  <path
     class="cls-1"
     d="M502.74,2829.07q-19.25-3.81-25.7-3.3l-3.75,11.54,10.11,19,25.52-7.89-6.18-19.36"
     id="path18" />
  <path
     class="cls-1"
     d="M472.05,2933.69Q445.48,2941.87,425,2946q-4.8,22.45-4.79,22.46l13.25,7.32,64.93-14.51q-.28-16.78-.29-16.79l-26-10.81"
     id="path20" />
  <path
     class="cls-1"
     d="M546.75,2957.93q-15.74-4.8-25.2-5.67L518.4,2967l19.77,6.93,8.58-16"
     id="path22" />
  <path
     class="cls-1"
     d="M599.5,2723.14q24.6,17,37.09,30.12l-3.39,20.29-39.32,13.73-4.2-13.06,9.35-25.34-7.13-18.51,7.6-7.23"
     id="path24" />
  <path
     class="cls-1"
     d="M645.34,2804q19.21,4,25,7-.76,12.16-.76,12.16l-16.32,13.62-20.72-17.3,12.8-15.49"
     id="path26" />
  <path
     class="cls-1"
     d="M635.45,2912.89q21.59,18,39,29.86-3.79,22.66-3.79,22.67l-15,1.58L601,2928.12l6.4-15.43,28.06.2"
     id="path28" />
  <path
     class="cls-1"
     d="M557.44,2906.05q16.32,1.71,25.4,4.62l-2.5,14.91-20.84-1.33q-2.06-18.21-2.06-18.2"
     id="path30" />
  <path
     class="cls-1"
     d="M2290.81,2608.18q29.45,10,45.58,19.69,1.91,21.49,1.91,21.5L2302,2674.69l-7.7-12q2.8-28.35,2.8-28.35l-12.1-16.66q5.79-9.51,5.8-9.51"
     id="path32" />
  <path
     class="cls-1"
     d="M2358.65,2676.69q20.57-1.53,27.22-.17,2.45,12.53,2.44,12.52-13,18.52-13,18.52l-25.59-11.48q8.89-19.39,8.9-19.39"
     id="path34" />
  <path
     class="cls-1"
     d="M2377.31,2789.68q26.66,11.91,47.5,18.86l2.13,24-14.75,5.94-65.85-23.41q2.44-17.46,2.44-17.47l28.53-8"
     id="path36" />
  <path
     class="cls-1"
     d="M2296.33,2805.43q17-3,27-2.7,1.4,15.81,1.4,15.81l-21.51,4.7-6.89-17.81"
     id="path38" />
  <path
     class="cls-1"
     d="M2271.29,2553.9q-27.83,14.57-42.52,26.67,1,21.58.95,21.58l39.24,19.34,6.05-13.08-6.51-27.62q9.78-18.39,9.79-18.39l-7-8.5"
     id="path40" />
  <path
     class="cls-1"
     d="M2213.18,2632.39q-20.57,1.74-27,4.13-.76,12.77-.77,12.77,15.27,16.29,15.28,16.28l23.81-15.39-11.36-17.79"
     id="path42" />
  <path
     class="cls-1"
     d="M2209.6,2747.14q-24.81,16-44.53,26.15,1.07,24.12,1.06,24.12l15.38,3.56,62.07-33.55-4.71-16.9-29.27-3.38"
     id="path44" />
  <path
     class="cls-1"
     d="M2291.8,2750q-17.24-.28-27.07,1.59.7,15.85.7,15.86l21.9,1.27,4.47-18.72"
     id="path46" />
  <text
     xml:space="preserve"
     style="font-style:normal;font-variant:normal;font-weight:600;font-stretch:normal;font-size:400px;line-height:1.25;font-family:'URW Bookman';-inkscape-font-specification:'URW Bookman Semi-Bold';fill:#000000;fill-opacity:1;stroke:none;"
     x="230.21584"
     y="3645.084"
     id="text878"><tspan
       sodipodi:role="line"
       id="tspan876"
       x="230.21584"
       y="3645.084"
       style="font-style:normal;font-variant:normal;font-weight:600;font-stretch:normal;font-size:400px;font-family:'URW Bookman';-inkscape-font-specification:'URW Bookman Semi-Bold';">MTBIKERS CLUB</tspan></text>
  <text
     xml:space="preserve"
     id="text880"
     style="fill:black;fill-opacity:1;line-height:1.25;stroke:none;font-family:'DejaVu Serif';font-style:normal;font-weight:normal;font-size:40px;white-space:pre;shape-inside:url(#rect882);-inkscape-font-specification:'DejaVu Serif';font-stretch:normal;font-variant:normal;" />
  <text
     xml:space="preserve"
     id="text886"
     style="fill:black;fill-opacity:1;line-height:1.25;stroke:none;font-family:'DejaVu Serif';font-style:normal;font-weight:normal;font-size:40px;white-space:pre;shape-inside:url(#rect888);-inkscape-font-specification:'DejaVu Serif';font-stretch:normal;font-variant:normal;" />
  <text
     xml:space="preserve"
     id="text892"
     style="fill:black;fill-opacity:1;line-height:1.25;stroke:none;font-family:'DejaVu Serif';font-style:normal;font-weight:normal;font-size:40px;white-space:pre;shape-inside:url(#rect894);-inkscape-font-specification:'DejaVu Serif';font-stretch:normal;font-variant:normal;" />
</svg>
